# xmcd CD database file
#
# Track frame offsets:
#	150
#	14359
#	26645
#	39092
#	51195
#	64460
#	78095
#	92705
#	105287
#	117670
#	134985
#	145607
#	163107
#	173520
#	190490
#	209490
#	220670
#	242827
#	258252
#	274432
#
# Disc length: 3802 seconds
#
# Revision: 0
# Processed by: cddbd v1.5.2PL0 Copyright (c) Steve Scherf et al.
# Submitted via: CDex 1.51
#
DISCID=240ed814
DTITLE=Various Artist - Laulajia jazztunnelmissa vol 5 vuodet 1929.1969 - Suomalaista Jazzia 70 vuotta
DYEAR=1900
DGENRE=Jazz
TTITLE0=Raatikkoon  blues - Yrjön orkesteri, Markus Rautio
TTITLE1=Broadway Rhythm - Eugen Malmsten ja Rytmi-pojat
TTITLE2=Kissa vieköön - (Jeepers Creepers) - Bruno Laakko ja hänen orkesterinsa Lepakot
TTITLE3=Whispering - Olavi Virta and Rytmi Orchestra
TTITLE4=Mr. five by Five - Harmony Sisters and Thore Ehrlings orkester
TTITLE5=Dinah - Klaus Salmi ja Bamblers orkesteri
TTITLE6=Blue Moon - Göran Odner and "All Stars"
TTITLE7=I Cross My Fingers - Sacy Sand and Ossi Aallon orkesteri
TTITLE8=The Way You Look Tonight - Seija Lampila ja Rytmiryhmä
TTITLE9=Baby Won't You Pleasse Come Home - Jan Granlund and Fenno Jazz Band
TTITLE10=Love Is Here To Stay - Wiola Talvikki Onni Gideon Quartet
TTITLE11=Blue Monk - Iiris Rautio and Veikko Hakkaraisen yhtye
TTITLE12=Honeysuckle Rose - Laila Kinnunen and Jakko Salon tv-yhtye
TTITLE13=The Nearness Of you - Helena Siltala& Rolf Kronqvist Quintet
TTITLE14=Deep Purple - Sinikka Oksanen and Tevuo suojärven kvarteti
TTITLE15=Yes Indeed - Lasse Mårtensson
TTITLE16=I'll Remember Clifford - Anja Piipponen
TTITLE17=Lusky Old Sun - Pentti Lasanen and Ronnie Kranckin sekstetti
TTITLE18=Some of These Days - Brita Koivunen
TTITLE19=Cute - Kai Lind
EXTD=
EXTT0=
EXTT1=
EXTT2=
EXTT3=
EXTT4=
EXTT5=
EXTT6=
EXTT7=
EXTT8=
EXTT9=
EXTT10=
EXTT11=
EXTT12=
EXTT13=
EXTT14=
EXTT15=
EXTT16=
EXTT17=
EXTT18=
EXTT19=
PLAYORDER=
